# Generated by tools/pixel/pixel-model.js
o borrowed_tiara
v 0.000000 1.100000 -0.050000
v 0.000000 1.150000 -0.050000
v 0.000000 1.150000 0.000000
v 0.000000 1.100000 0.000000
v -0.050000 1.100000 0.000000
v -0.050000 1.150000 0.000000
v -0.050000 1.150000 -0.050000
v -0.050000 1.100000 -0.050000
v 0.000000 1.150000 0.050000
v 0.000000 1.100000 0.050000
v -0.050000 1.100000 0.050000
v -0.050000 1.150000 0.050000
v -0.150000 1.050000 0.000000
v -0.150000 1.100000 0.000000
v -0.150000 1.100000 -0.050000
v -0.150000 1.050000 -0.050000
v -0.100000 1.050000 0.000000
v -0.100000 1.050000 -0.050000
v -0.100000 1.100000 -0.050000
v -0.150000 1.050000 0.050000
v -0.150000 1.100000 0.050000
v -0.100000 1.050000 0.050000
v -0.100000 1.100000 0.050000
v -0.050000 1.050000 0.000000
v -0.050000 1.050000 -0.050000
v -0.050000 1.050000 0.050000
v 0.000000 1.050000 -0.050000
v 0.000000 1.050000 0.050000
v 0.050000 1.050000 0.000000
v 0.000000 1.050000 0.000000
v 0.050000 1.050000 -0.050000
v 0.050000 1.100000 -0.050000
v 0.050000 1.050000 0.050000
v 0.050000 1.100000 0.050000
v 0.100000 1.050000 -0.050000
v 0.100000 1.100000 -0.050000
v 0.100000 1.100000 0.000000
v 0.100000 1.050000 0.000000
v 0.100000 1.100000 0.050000
v 0.100000 1.050000 0.050000
v -0.200000 1.000000 0.000000
v -0.200000 1.050000 0.000000
v -0.200000 1.050000 -0.050000
v -0.200000 1.000000 -0.050000
v -0.150000 1.000000 0.000000
v -0.150000 1.000000 -0.050000
v -0.200000 1.000000 0.050000
v -0.200000 1.050000 0.050000
v -0.150000 1.000000 0.050000
v -0.100000 1.000000 -0.050000
v -0.100000 1.000000 0.050000
v -0.050000 1.000000 -0.050000
v -0.050000 1.000000 0.000000
v -0.050000 1.000000 0.050000
v 0.000000 1.000000 0.000000
v 0.000000 1.000000 -0.050000
v 0.050000 1.000000 -0.050000
v 0.000000 1.000000 0.050000
v 0.050000 1.000000 0.050000
v 0.100000 1.000000 -0.050000
v 0.100000 1.000000 0.050000
v 0.150000 1.000000 -0.050000
v 0.150000 1.050000 -0.050000
v 0.150000 1.050000 0.000000
v 0.150000 1.000000 0.000000
v 0.100000 1.000000 0.000000
v 0.150000 1.050000 0.050000
v 0.150000 1.000000 0.050000
v -0.300000 0.950000 0.000000
v -0.300000 1.000000 0.000000
v -0.300000 1.000000 -0.050000
v -0.300000 0.950000 -0.050000
v -0.250000 0.950000 0.000000
v -0.250000 0.950000 -0.050000
v -0.250000 1.000000 -0.050000
v -0.300000 0.950000 0.050000
v -0.300000 1.000000 0.050000
v -0.250000 0.950000 0.050000
v -0.250000 1.000000 0.050000
v -0.200000 0.950000 0.000000
v -0.200000 0.950000 -0.050000
v -0.200000 0.950000 0.050000
v -0.150000 0.950000 -0.050000
v -0.150000 0.950000 0.050000
v -0.100000 0.950000 -0.050000
v -0.100000 0.950000 0.050000
v -0.050000 0.950000 -0.050000
v -0.050000 0.950000 0.050000
v 0.000000 0.950000 0.000000
v -0.050000 0.950000 0.000000
v 0.000000 0.950000 -0.050000
v 0.000000 0.950000 0.050000
v 0.050000 0.950000 -0.050000
v 0.050000 0.950000 0.050000
v 0.100000 0.950000 -0.050000
v 0.100000 0.950000 0.050000
v 0.150000 0.950000 -0.050000
v 0.150000 0.950000 0.050000
v 0.200000 0.950000 -0.050000
v 0.200000 1.000000 -0.050000
v 0.200000 1.000000 0.000000
v 0.200000 0.950000 0.000000
v 0.150000 0.950000 0.000000
v 0.200000 1.000000 0.050000
v 0.200000 0.950000 0.050000
v -0.350000 0.900000 0.000000
v -0.350000 0.950000 0.000000
v -0.350000 0.950000 -0.050000
v -0.350000 0.900000 -0.050000
v -0.300000 0.900000 0.000000
v -0.300000 0.900000 -0.050000
v -0.350000 0.900000 0.050000
v -0.350000 0.950000 0.050000
v -0.300000 0.900000 0.050000
v -0.250000 0.900000 -0.050000
v -0.250000 0.900000 0.050000
v -0.200000 0.900000 -0.050000
v -0.200000 0.900000 0.050000
v -0.150000 0.900000 -0.050000
v -0.150000 0.900000 0.050000
v -0.100000 0.900000 -0.050000
v -0.100000 0.900000 0.050000
v -0.050000 0.900000 -0.050000
v -0.050000 0.900000 0.050000
v 0.000000 0.900000 -0.050000
v 0.000000 0.900000 0.050000
v 0.050000 0.900000 -0.050000
v 0.050000 0.900000 0.050000
v 0.100000 0.900000 -0.050000
v 0.100000 0.900000 0.050000
v 0.150000 0.900000 -0.050000
v 0.150000 0.900000 0.050000
v 0.200000 0.900000 -0.050000
v 0.200000 0.900000 0.050000
v 0.250000 0.900000 0.000000
v 0.200000 0.900000 0.000000
v 0.250000 0.900000 -0.050000
v 0.250000 0.950000 -0.050000
v 0.250000 0.900000 0.050000
v 0.250000 0.950000 0.050000
v 0.300000 0.900000 0.000000
v 0.300000 0.900000 -0.050000
v 0.300000 0.950000 -0.050000
v 0.300000 0.900000 0.050000
v 0.300000 0.950000 0.050000
v 0.350000 0.900000 -0.050000
v 0.350000 0.950000 -0.050000
v 0.350000 0.950000 0.000000
v 0.350000 0.900000 0.000000
v 0.350000 0.950000 0.050000
v 0.350000 0.900000 0.050000
v -0.400000 0.850000 0.000000
v -0.400000 0.900000 0.000000
v -0.400000 0.900000 -0.050000
v -0.400000 0.850000 -0.050000
v -0.350000 0.850000 0.000000
v -0.350000 0.850000 -0.050000
v -0.400000 0.850000 0.050000
v -0.400000 0.900000 0.050000
v -0.350000 0.850000 0.050000
v -0.300000 0.850000 -0.050000
v -0.300000 0.850000 0.050000
v -0.250000 0.850000 -0.050000
v -0.250000 0.850000 0.050000
v -0.200000 0.850000 -0.050000
v -0.200000 0.850000 0.050000
v -0.150000 0.850000 -0.050000
v -0.150000 0.850000 0.050000
v -0.100000 0.850000 -0.050000
v -0.100000 0.850000 0.050000
v -0.050000 0.850000 -0.050000
v -0.050000 0.850000 0.050000
v 0.000000 0.850000 -0.050000
v 0.000000 0.850000 0.050000
v 0.050000 0.850000 -0.050000
v 0.050000 0.850000 0.050000
v 0.100000 0.850000 -0.050000
v 0.100000 0.850000 0.050000
v 0.150000 0.850000 -0.050000
v 0.150000 0.850000 0.050000
v 0.200000 0.850000 -0.050000
v 0.200000 0.850000 0.050000
v 0.250000 0.850000 -0.050000
v 0.250000 0.850000 0.050000
v 0.300000 0.850000 -0.050000
v 0.300000 0.850000 0.050000
v 0.350000 0.850000 -0.050000
v 0.350000 0.850000 0.050000
v 0.400000 0.850000 -0.050000
v 0.400000 0.900000 -0.050000
v 0.400000 0.900000 0.000000
v 0.400000 0.850000 0.000000
v 0.350000 0.850000 0.000000
v 0.400000 0.900000 0.050000
v 0.400000 0.850000 0.050000
v -0.350000 0.800000 0.000000
v -0.350000 0.800000 -0.050000
v -0.300000 0.850000 0.000000
v -0.300000 0.800000 -0.050000
v -0.350000 0.800000 0.050000
v -0.300000 0.800000 0.050000
v -0.250000 0.800000 -0.050000
v -0.250000 0.800000 0.050000
v -0.200000 0.800000 -0.050000
v -0.200000 0.800000 0.050000
v -0.150000 0.800000 -0.050000
v -0.150000 0.800000 0.050000
v -0.100000 0.800000 -0.050000
v -0.100000 0.800000 0.050000
v -0.050000 0.800000 -0.050000
v -0.050000 0.800000 0.050000
v 0.000000 0.800000 -0.050000
v 0.000000 0.800000 0.050000
v 0.050000 0.800000 -0.050000
v 0.050000 0.800000 0.050000
v 0.100000 0.800000 -0.050000
v 0.100000 0.800000 0.050000
v 0.150000 0.800000 -0.050000
v 0.150000 0.800000 0.050000
v 0.200000 0.800000 -0.050000
v 0.200000 0.800000 0.050000
v 0.250000 0.800000 -0.050000
v 0.250000 0.800000 0.050000
v 0.300000 0.800000 -0.050000
v 0.300000 0.800000 0.050000
v 0.350000 0.800000 -0.050000
v 0.350000 0.800000 0.000000
v 0.300000 0.850000 0.000000
v 0.350000 0.800000 0.050000
v -0.300000 0.750000 0.000000
v -0.300000 0.800000 0.000000
v -0.300000 0.750000 -0.050000
v -0.250000 0.800000 0.000000
v -0.250000 0.750000 -0.050000
v -0.300000 0.750000 0.050000
v -0.250000 0.750000 0.050000
v -0.200000 0.800000 0.000000
v -0.200000 0.750000 -0.050000
v -0.200000 0.750000 0.050000
v -0.150000 0.750000 -0.050000
v -0.150000 0.750000 0.050000
v -0.100000 0.750000 -0.050000
v -0.100000 0.750000 0.050000
v -0.050000 0.750000 -0.050000
v -0.050000 0.750000 0.050000
v 0.000000 0.750000 -0.050000
v 0.000000 0.750000 0.050000
v 0.050000 0.750000 -0.050000
v 0.050000 0.750000 0.050000
v 0.100000 0.750000 -0.050000
v 0.100000 0.750000 0.050000
v 0.150000 0.750000 -0.050000
v 0.150000 0.750000 0.050000
v 0.200000 0.750000 -0.050000
v 0.200000 0.750000 0.050000
v 0.200000 0.800000 0.000000
v 0.250000 0.800000 0.000000
v 0.250000 0.750000 -0.050000
v 0.250000 0.750000 0.050000
v 0.300000 0.750000 -0.050000
v 0.300000 0.800000 0.000000
v 0.300000 0.750000 0.000000
v 0.300000 0.750000 0.050000
v -0.200000 0.700000 0.000000
v -0.200000 0.750000 0.000000
v -0.200000 0.700000 -0.050000
v -0.150000 0.750000 0.000000
v -0.150000 0.700000 -0.050000
v -0.200000 0.700000 0.050000
v -0.150000 0.700000 0.050000
v -0.100000 0.750000 0.000000
v -0.100000 0.700000 -0.050000
v -0.100000 0.700000 0.050000
v -0.050000 0.750000 0.000000
v -0.050000 0.700000 -0.050000
v -0.050000 0.700000 0.050000
v 0.000000 0.750000 0.000000
v 0.000000 0.700000 -0.050000
v 0.000000 0.700000 0.050000
v 0.050000 0.750000 0.000000
v 0.050000 0.700000 -0.050000
v 0.050000 0.700000 0.050000
v 0.100000 0.750000 0.000000
v 0.100000 0.700000 -0.050000
v 0.100000 0.700000 0.050000
v 0.150000 0.750000 0.000000
v 0.150000 0.700000 -0.050000
v 0.150000 0.700000 0.050000
v 0.200000 0.700000 -0.050000
v 0.200000 0.750000 0.000000
v 0.200000 0.700000 0.000000
v 0.200000 0.700000 0.050000
f 1 2 3 4
f 5 6 7 8
f 4 5 8 1
f 1 8 7 2
f 4 3 9 10
f 11 12 6 5
f 10 11 5 4
f 11 10 9 12
f 13 14 15 16
f 17 13 16 18
f 18 16 15 19
f 20 21 14 13
f 22 20 13 17
f 20 22 23 21
f 24 17 18 25
f 25 18 19 8
f 26 22 17 24
f 22 26 11 23
f 5 4 1 8
f 27 25 8 1
f 11 10 4 5
f 26 28 10 11
f 29 30 27 31
f 31 27 1 32
f 33 28 30 29
f 28 33 34 10
f 35 36 37 38
f 38 29 31 35
f 35 31 32 36
f 38 37 39 40
f 40 33 29 38
f 33 40 39 34
f 41 42 43 44
f 45 41 44 46
f 46 44 43 16
f 47 48 42 41
f 49 47 41 45
f 47 49 20 48
f 50 46 16 18
f 49 51 22 20
f 52 25 24 53
f 52 50 18 25
f 53 24 26 54
f 51 54 26 22
f 55 30 27 56
f 57 56 27 31
f 58 28 30 55
f 58 59 33 28
f 60 57 31 35
f 59 61 40 33
f 62 63 64 65
f 65 66 60 62
f 62 60 35 63
f 65 64 67 68
f 68 61 66 65
f 61 68 67 40
f 69 70 71 72
f 73 69 72 74
f 74 72 71 75
f 76 77 70 69
f 78 76 69 73
f 76 78 79 77
f 80 73 74 81
f 81 74 75 44
f 82 78 73 80
f 78 82 47 79
f 83 81 44 46
f 82 84 49 47
f 85 83 46 50
f 84 86 51 49
f 87 85 50 52
f 86 88 54 51
f 89 90 87 91
f 91 87 52 56
f 92 88 90 89
f 88 92 58 54
f 93 91 56 57
f 92 94 59 58
f 95 93 57 60
f 94 96 61 59
f 97 95 60 62
f 96 98 68 61
f 99 100 101 102
f 102 103 97 99
f 99 97 62 100
f 102 101 104 105
f 105 98 103 102
f 98 105 104 68
f 106 107 108 109
f 110 106 109 111
f 111 109 108 72
f 112 113 107 106
f 114 112 106 110
f 112 114 76 113
f 115 111 72 74
f 114 116 78 76
f 117 115 74 81
f 116 118 82 78
f 119 117 81 83
f 118 120 84 82
f 121 119 83 85
f 120 122 86 84
f 123 121 85 87
f 122 124 88 86
f 125 123 87 91
f 124 126 92 88
f 127 125 91 93
f 126 128 94 92
f 129 127 93 95
f 128 130 96 94
f 131 129 95 97
f 130 132 98 96
f 133 131 97 99
f 132 134 105 98
f 135 136 133 137
f 137 133 99 138
f 139 134 136 135
f 134 139 140 105
f 141 135 137 142
f 142 137 138 143
f 144 139 135 141
f 139 144 145 140
f 146 147 148 149
f 149 141 142 146
f 146 142 143 147
f 149 148 150 151
f 151 144 141 149
f 144 151 150 145
f 152 153 154 155
f 153 106 109 154
f 156 152 155 157
f 157 155 154 109
f 158 159 153 152
f 159 112 106 153
f 160 158 152 156
f 158 160 112 159
f 161 157 109 111
f 160 162 114 112
f 163 161 111 115
f 162 164 116 114
f 165 163 115 117
f 164 166 118 116
f 167 165 117 119
f 166 168 120 118
f 169 167 119 121
f 168 170 122 120
f 171 169 121 123
f 170 172 124 122
f 173 171 123 125
f 172 174 126 124
f 175 173 125 127
f 174 176 128 126
f 177 175 127 129
f 176 178 130 128
f 179 177 129 131
f 178 180 132 130
f 181 179 131 133
f 180 182 134 132
f 183 181 133 137
f 182 184 139 134
f 185 183 137 142
f 184 186 144 139
f 187 185 142 146
f 186 188 151 144
f 189 190 191 192
f 149 191 190 146
f 192 193 187 189
f 189 187 146 190
f 192 191 194 195
f 151 194 191 149
f 195 188 193 192
f 188 195 194 151
f 196 156 157 197
f 156 198 161 157
f 199 197 157 161
f 200 160 156 196
f 160 162 198 156
f 200 201 162 160
f 202 199 161 163
f 201 203 164 162
f 204 202 163 165
f 203 205 166 164
f 206 204 165 167
f 205 207 168 166
f 208 206 167 169
f 207 209 170 168
f 210 208 169 171
f 209 211 172 170
f 212 210 171 173
f 211 213 174 172
f 214 212 173 175
f 213 215 176 174
f 216 214 175 177
f 215 217 178 176
f 218 216 177 179
f 217 219 180 178
f 220 218 179 181
f 219 221 182 180
f 222 220 181 183
f 221 223 184 182
f 224 222 183 185
f 223 225 186 184
f 226 187 193 227
f 228 193 187 185
f 226 224 185 187
f 227 193 188 229
f 186 188 193 228
f 225 229 188 186
f 230 231 199 232
f 231 233 202 199
f 234 232 199 202
f 235 201 231 230
f 201 203 233 231
f 235 236 203 201
f 233 237 204 202
f 238 234 202 204
f 203 205 237 233
f 236 239 205 203
f 240 238 204 206
f 239 241 207 205
f 242 240 206 208
f 241 243 209 207
f 244 242 208 210
f 243 245 211 209
f 246 244 210 212
f 245 247 213 211
f 248 246 212 214
f 247 249 215 213
f 250 248 214 216
f 249 251 217 215
f 252 250 216 218
f 251 253 219 217
f 254 252 218 220
f 253 255 221 219
f 256 257 222 220
f 258 254 220 222
f 221 223 257 256
f 255 259 223 221
f 260 224 261 262
f 257 261 224 222
f 260 258 222 224
f 262 261 225 263
f 223 225 261 257
f 259 263 225 223
f 264 265 238 266
f 265 267 240 238
f 268 266 238 240
f 269 239 265 264
f 239 241 267 265
f 269 270 241 239
f 267 271 242 240
f 272 268 240 242
f 241 243 271 267
f 270 273 243 241
f 271 274 244 242
f 275 272 242 244
f 243 245 274 271
f 273 276 245 243
f 274 277 246 244
f 278 275 244 246
f 245 247 277 274
f 276 279 247 245
f 277 280 248 246
f 281 278 246 248
f 247 249 280 277
f 279 282 249 247
f 280 283 250 248
f 284 281 248 250
f 249 251 283 280
f 282 285 251 249
f 283 286 252 250
f 287 284 250 252
f 251 253 286 283
f 285 288 253 251
f 289 254 290 291
f 286 290 254 252
f 289 287 252 254
f 291 290 255 292
f 253 255 290 286
f 288 292 255 253
