# Generated by tools/pixel/pixel-model.js
o borrowed_ring
v -0.100000 1.050000 0.000000
v -0.100000 1.100000 0.000000
v -0.100000 1.100000 -0.050000
v -0.100000 1.050000 -0.050000
v -0.050000 1.050000 0.000000
v -0.050000 1.050000 -0.050000
v -0.050000 1.100000 -0.050000
v -0.100000 1.050000 0.050000
v -0.100000 1.100000 0.050000
v -0.050000 1.050000 0.050000
v -0.050000 1.100000 0.050000
v 0.000000 1.050000 0.000000
v 0.000000 1.050000 -0.050000
v 0.000000 1.100000 -0.050000
v 0.000000 1.050000 0.050000
v 0.000000 1.100000 0.050000
v 0.050000 1.050000 0.000000
v 0.050000 1.050000 -0.050000
v 0.050000 1.100000 -0.050000
v 0.050000 1.050000 0.050000
v 0.050000 1.100000 0.050000
v 0.100000 1.050000 -0.050000
v 0.100000 1.100000 -0.050000
v 0.100000 1.100000 0.000000
v 0.100000 1.050000 0.000000
v 0.100000 1.100000 0.050000
v 0.100000 1.050000 0.050000
v -0.200000 1.000000 0.000000
v -0.200000 1.050000 0.000000
v -0.200000 1.050000 -0.050000
v -0.200000 1.000000 -0.050000
v -0.150000 1.000000 0.000000
v -0.150000 1.000000 -0.050000
v -0.150000 1.050000 -0.050000
v -0.200000 1.000000 0.050000
v -0.200000 1.050000 0.050000
v -0.150000 1.000000 0.050000
v -0.150000 1.050000 0.050000
v -0.100000 1.000000 0.000000
v -0.100000 1.000000 -0.050000
v -0.100000 1.000000 0.050000
v -0.050000 1.000000 -0.050000
v -0.050000 1.000000 0.050000
v 0.000000 1.000000 -0.050000
v 0.000000 1.000000 0.050000
v 0.050000 1.000000 -0.050000
v 0.050000 1.000000 0.050000
v 0.100000 1.000000 -0.050000
v 0.100000 1.000000 0.050000
v 0.150000 1.000000 0.000000
v 0.100000 1.000000 0.000000
v 0.150000 1.000000 -0.050000
v 0.150000 1.050000 -0.050000
v 0.150000 1.000000 0.050000
v 0.150000 1.050000 0.050000
v 0.200000 1.000000 -0.050000
v 0.200000 1.050000 -0.050000
v 0.200000 1.050000 0.000000
v 0.200000 1.000000 0.000000
v 0.200000 1.050000 0.050000
v 0.200000 1.000000 0.050000
v -0.250000 0.950000 0.000000
v -0.250000 1.000000 0.000000
v -0.250000 1.000000 -0.050000
v -0.250000 0.950000 -0.050000
v -0.200000 0.950000 0.000000
v -0.200000 0.950000 -0.050000
v -0.250000 0.950000 0.050000
v -0.250000 1.000000 0.050000
v -0.200000 0.950000 0.050000
v -0.150000 0.950000 -0.050000
v -0.150000 0.950000 0.050000
v -0.100000 0.950000 -0.050000
v -0.100000 0.950000 0.050000
v -0.050000 0.950000 -0.050000
v -0.050000 1.000000 0.000000
v -0.050000 0.950000 0.000000
v -0.050000 0.950000 0.050000
v 0.050000 0.950000 0.000000
v 0.050000 1.000000 0.000000
v 0.050000 0.950000 -0.050000
v 0.100000 0.950000 -0.050000
v 0.050000 0.950000 0.050000
v 0.100000 0.950000 0.050000
v 0.150000 0.950000 -0.050000
v 0.150000 0.950000 0.050000
v 0.200000 0.950000 -0.050000
v 0.200000 0.950000 0.050000
v 0.250000 0.950000 -0.050000
v 0.250000 1.000000 -0.050000
v 0.250000 1.000000 0.000000
v 0.250000 0.950000 0.000000
v 0.200000 0.950000 0.000000
v 0.250000 1.000000 0.050000
v 0.250000 0.950000 0.050000
v -0.300000 0.900000 0.000000
v -0.300000 0.950000 0.000000
v -0.300000 0.950000 -0.050000
v -0.300000 0.900000 -0.050000
v -0.250000 0.900000 0.000000
v -0.250000 0.900000 -0.050000
v -0.300000 0.900000 0.050000
v -0.300000 0.950000 0.050000
v -0.250000 0.900000 0.050000
v -0.200000 0.900000 -0.050000
v -0.200000 0.900000 0.050000
v -0.150000 0.900000 -0.050000
v -0.150000 0.900000 0.050000
v -0.100000 0.900000 -0.050000
v -0.100000 0.950000 0.000000
v -0.100000 0.900000 0.000000
v -0.150000 0.950000 0.000000
v -0.100000 0.900000 0.050000
v 0.100000 0.900000 0.000000
v 0.100000 0.950000 0.000000
v 0.100000 0.900000 -0.050000
v 0.150000 0.950000 0.000000
v 0.150000 0.900000 -0.050000
v 0.100000 0.900000 0.050000
v 0.150000 0.900000 0.050000
v 0.200000 0.900000 -0.050000
v 0.200000 0.900000 0.050000
v 0.250000 0.900000 -0.050000
v 0.250000 0.900000 0.050000
v 0.300000 0.900000 -0.050000
v 0.300000 0.950000 -0.050000
v 0.300000 0.950000 0.000000
v 0.300000 0.900000 0.000000
v 0.250000 0.900000 0.000000
v 0.300000 0.950000 0.050000
v 0.300000 0.900000 0.050000
v -0.300000 0.850000 0.000000
v -0.300000 0.850000 -0.050000
v -0.250000 0.850000 -0.050000
v -0.300000 0.850000 0.050000
v -0.250000 0.850000 0.050000
v -0.200000 0.850000 -0.050000
v -0.200000 0.850000 0.050000
v -0.150000 0.850000 -0.050000
v -0.150000 0.900000 0.000000
v -0.150000 0.850000 0.000000
v -0.150000 0.850000 0.050000
v 0.150000 0.850000 0.000000
v 0.150000 0.900000 0.000000
v 0.150000 0.850000 -0.050000
v 0.200000 0.850000 -0.050000
v 0.150000 0.850000 0.050000
v 0.200000 0.850000 0.050000
v 0.250000 0.850000 -0.050000
v 0.250000 0.850000 0.050000
v 0.300000 0.850000 -0.050000
v 0.300000 0.850000 0.000000
v 0.300000 0.850000 0.050000
v -0.300000 0.800000 0.000000
v -0.300000 0.800000 -0.050000
v -0.250000 0.800000 -0.050000
v -0.300000 0.800000 0.050000
v -0.250000 0.800000 0.050000
v -0.200000 0.800000 -0.050000
v -0.200000 0.800000 0.050000
v -0.150000 0.800000 -0.050000
v -0.150000 0.800000 0.000000
v -0.150000 0.800000 0.050000
v -0.050000 0.800000 0.000000
v -0.050000 0.850000 0.000000
v -0.050000 0.850000 -0.050000
v -0.050000 0.800000 -0.050000
v 0.000000 0.850000 0.000000
v 0.000000 0.850000 -0.050000
v 0.000000 0.800000 0.000000
v 0.000000 0.800000 -0.050000
v -0.050000 0.800000 0.050000
v -0.050000 0.850000 0.050000
v 0.000000 0.850000 0.050000
v 0.000000 0.800000 0.050000
v 0.050000 0.800000 -0.050000
v 0.050000 0.850000 -0.050000
v 0.050000 0.850000 0.000000
v 0.050000 0.800000 0.000000
v 0.050000 0.850000 0.050000
v 0.050000 0.800000 0.050000
v 0.150000 0.800000 0.000000
v 0.150000 0.800000 -0.050000
v 0.200000 0.800000 -0.050000
v 0.150000 0.800000 0.050000
v 0.200000 0.800000 0.050000
v 0.250000 0.800000 -0.050000
v 0.250000 0.800000 0.050000
v 0.300000 0.800000 -0.050000
v 0.300000 0.800000 0.000000
v 0.300000 0.800000 0.050000
v -0.300000 0.750000 0.000000
v -0.300000 0.750000 -0.050000
v -0.250000 0.800000 0.000000
v -0.250000 0.750000 -0.050000
v -0.300000 0.750000 0.050000
v -0.250000 0.750000 0.050000
v -0.200000 0.750000 -0.050000
v -0.200000 0.750000 0.050000
v -0.150000 0.750000 -0.050000
v -0.150000 0.750000 0.050000
v -0.100000 0.750000 -0.050000
v -0.100000 0.800000 -0.050000
v -0.100000 0.800000 0.000000
v -0.100000 0.750000 0.000000
v -0.150000 0.750000 0.000000
v -0.100000 0.800000 0.050000
v -0.100000 0.750000 0.050000
v 0.100000 0.750000 0.000000
v 0.100000 0.800000 0.000000
v 0.100000 0.800000 -0.050000
v 0.100000 0.750000 -0.050000
v 0.150000 0.750000 0.000000
v 0.150000 0.750000 -0.050000
v 0.100000 0.750000 0.050000
v 0.100000 0.800000 0.050000
v 0.150000 0.750000 0.050000
v 0.200000 0.750000 -0.050000
v 0.200000 0.750000 0.050000
v 0.250000 0.750000 -0.050000
v 0.250000 0.750000 0.050000
v 0.300000 0.750000 -0.050000
v 0.300000 0.750000 0.000000
v 0.250000 0.800000 0.000000
v 0.300000 0.750000 0.050000
v -0.250000 0.700000 0.000000
v -0.250000 0.750000 0.000000
v -0.250000 0.700000 -0.050000
v -0.200000 0.750000 0.000000
v -0.200000 0.700000 -0.050000
v -0.250000 0.700000 0.050000
v -0.200000 0.700000 0.050000
v -0.150000 0.700000 -0.050000
v -0.150000 0.700000 0.050000
v -0.100000 0.700000 -0.050000
v -0.100000 0.700000 0.050000
v -0.050000 0.700000 -0.050000
v -0.050000 0.750000 -0.050000
v -0.050000 0.750000 0.000000
v -0.050000 0.700000 0.000000
v -0.100000 0.700000 0.000000
v -0.050000 0.750000 0.050000
v -0.050000 0.700000 0.050000
v 0.050000 0.700000 0.000000
v 0.050000 0.750000 0.000000
v 0.050000 0.750000 -0.050000
v 0.050000 0.700000 -0.050000
v 0.100000 0.700000 0.000000
v 0.100000 0.700000 -0.050000
v 0.050000 0.700000 0.050000
v 0.050000 0.750000 0.050000
v 0.100000 0.700000 0.050000
v 0.150000 0.700000 -0.050000
v 0.150000 0.700000 0.050000
v 0.200000 0.700000 -0.050000
v 0.200000 0.700000 0.050000
v 0.250000 0.700000 -0.050000
v 0.250000 0.750000 0.000000
v 0.250000 0.700000 0.000000
v 0.200000 0.750000 0.000000
v 0.250000 0.700000 0.050000
v -0.200000 0.650000 0.000000
v -0.200000 0.700000 0.000000
v -0.200000 0.650000 -0.050000
v -0.150000 0.700000 0.000000
v -0.150000 0.650000 -0.050000
v -0.200000 0.650000 0.050000
v -0.150000 0.650000 0.050000
v -0.100000 0.650000 -0.050000
v -0.100000 0.650000 0.050000
v -0.050000 0.650000 -0.050000
v -0.050000 0.650000 0.050000
v 0.000000 0.650000 0.000000
v -0.050000 0.650000 0.000000
v 0.000000 0.650000 -0.050000
v 0.000000 0.700000 -0.050000
v 0.000000 0.650000 0.050000
v 0.000000 0.700000 0.050000
v 0.050000 0.650000 0.000000
v 0.050000 0.650000 -0.050000
v 0.050000 0.650000 0.050000
v 0.100000 0.650000 -0.050000
v 0.100000 0.650000 0.050000
v 0.150000 0.700000 0.000000
v 0.150000 0.650000 -0.050000
v 0.150000 0.650000 0.050000
v 0.200000 0.650000 -0.050000
v 0.200000 0.700000 0.000000
v 0.200000 0.650000 0.000000
v 0.200000 0.650000 0.050000
v -0.100000 0.600000 0.000000
v -0.100000 0.650000 0.000000
v -0.100000 0.600000 -0.050000
v -0.050000 0.600000 -0.050000
v -0.100000 0.600000 0.050000
v -0.050000 0.600000 0.050000
v 0.000000 0.600000 -0.050000
v 0.000000 0.600000 0.050000
v 0.050000 0.600000 -0.050000
v 0.050000 0.600000 0.050000
v 0.100000 0.600000 -0.050000
v 0.100000 0.650000 0.000000
v 0.100000 0.600000 0.000000
v 0.100000 0.600000 0.050000
f 1 2 3 4
f 5 1 4 6
f 6 4 3 7
f 8 9 2 1
f 10 8 1 5
f 8 10 11 9
f 12 5 6 13
f 13 6 7 14
f 15 10 5 12
f 10 15 16 11
f 17 12 13 18
f 18 13 14 19
f 20 15 12 17
f 15 20 21 16
f 22 23 24 25
f 25 17 18 22
f 22 18 19 23
f 25 24 26 27
f 27 20 17 25
f 20 27 26 21
f 28 29 30 31
f 32 28 31 33
f 33 31 30 34
f 35 36 29 28
f 37 35 28 32
f 35 37 38 36
f 39 32 33 40
f 40 33 34 4
f 41 37 32 39
f 37 41 8 38
f 42 40 4 6
f 41 43 10 8
f 5 12 13 6
f 44 42 6 13
f 10 15 12 5
f 43 45 15 10
f 12 17 18 13
f 46 44 13 18
f 15 20 17 12
f 45 47 20 15
f 48 46 18 22
f 47 49 27 20
f 50 51 48 52
f 52 48 22 53
f 54 49 51 50
f 49 54 55 27
f 56 57 58 59
f 59 50 52 56
f 56 52 53 57
f 59 58 60 61
f 61 54 50 59
f 54 61 60 55
f 62 63 64 65
f 66 62 65 67
f 67 65 64 31
f 68 69 63 62
f 70 68 62 66
f 68 70 35 69
f 71 67 31 33
f 70 72 37 35
f 73 71 33 40
f 72 74 41 37
f 75 42 76 77
f 39 76 42 40
f 75 73 40 42
f 77 76 43 78
f 41 43 76 39
f 74 78 43 41
f 79 80 46 81
f 80 51 48 46
f 82 81 46 48
f 83 47 80 79
f 47 49 51 80
f 83 84 49 47
f 85 82 48 52
f 84 86 54 49
f 87 85 52 56
f 86 88 61 54
f 89 90 91 92
f 92 93 87 89
f 89 87 56 90
f 92 91 94 95
f 95 88 93 92
f 88 95 94 61
f 96 97 98 99
f 100 96 99 101
f 101 99 98 65
f 102 103 97 96
f 104 102 96 100
f 102 104 68 103
f 105 101 65 67
f 104 106 70 68
f 107 105 67 71
f 106 108 72 70
f 109 73 110 111
f 112 110 73 71
f 109 107 71 73
f 111 110 74 113
f 72 74 110 112
f 108 113 74 72
f 114 115 82 116
f 115 117 85 82
f 118 116 82 85
f 119 84 115 114
f 84 86 117 115
f 119 120 86 84
f 121 118 85 87
f 120 122 88 86
f 123 121 87 89
f 122 124 95 88
f 125 126 127 128
f 128 129 123 125
f 125 123 89 126
f 128 127 130 131
f 131 124 129 128
f 124 131 130 95
f 132 96 99 133
f 134 133 99 101
f 135 102 96 132
f 135 136 104 102
f 137 134 101 105
f 136 138 106 104
f 139 107 140 141
f 139 137 105 107
f 141 140 108 142
f 138 142 108 106
f 143 144 118 145
f 146 145 118 121
f 147 120 144 143
f 147 148 122 120
f 149 146 121 123
f 148 150 124 122
f 151 125 128 152
f 151 149 123 125
f 152 128 131 153
f 150 153 131 124
f 154 132 133 155
f 156 155 133 134
f 157 135 132 154
f 157 158 136 135
f 159 156 134 137
f 158 160 138 136
f 161 139 141 162
f 161 159 137 139
f 162 141 142 163
f 160 163 142 138
f 164 165 166 167
f 165 168 169 166
f 170 164 167 171
f 171 167 166 169
f 172 173 165 164
f 173 174 168 165
f 175 172 164 170
f 172 175 174 173
f 176 177 178 179
f 168 178 177 169
f 179 170 171 176
f 176 171 169 177
f 179 178 180 181
f 174 180 178 168
f 181 175 170 179
f 175 181 180 174
f 182 143 145 183
f 184 183 145 146
f 185 147 143 182
f 185 186 148 147
f 187 184 146 149
f 186 188 150 148
f 189 151 152 190
f 189 187 149 151
f 190 152 153 191
f 188 191 153 150
f 192 154 155 193
f 154 194 156 155
f 195 193 155 156
f 196 157 154 192
f 157 158 194 154
f 196 197 158 157
f 198 195 156 159
f 197 199 160 158
f 200 198 159 161
f 199 201 163 160
f 202 203 204 205
f 205 206 200 202
f 202 200 161 203
f 205 204 207 208
f 208 201 206 205
f 201 208 207 163
f 209 210 211 212
f 213 209 212 214
f 214 212 211 183
f 215 216 210 209
f 217 215 209 213
f 215 217 185 216
f 218 214 183 184
f 217 219 186 185
f 220 218 184 187
f 219 221 188 186
f 222 189 190 223
f 224 190 189 187
f 222 220 187 189
f 223 190 191 225
f 188 191 190 224
f 221 225 191 188
f 226 227 195 228
f 227 229 198 195
f 230 228 195 198
f 231 197 227 226
f 197 199 229 227
f 231 232 199 197
f 233 230 198 200
f 232 234 201 199
f 235 233 200 202
f 234 236 208 201
f 237 238 239 240
f 240 241 235 237
f 237 235 202 238
f 240 239 242 243
f 243 236 241 240
f 236 243 242 208
f 244 245 246 247
f 248 244 247 249
f 249 247 246 212
f 250 251 245 244
f 252 250 244 248
f 250 252 215 251
f 253 249 212 214
f 252 254 217 215
f 255 253 214 218
f 254 256 219 217
f 257 220 258 259
f 260 258 220 218
f 257 255 218 220
f 259 258 221 261
f 219 221 258 260
f 256 261 221 219
f 262 263 230 264
f 263 265 233 230
f 266 264 230 233
f 267 232 263 262
f 232 234 265 263
f 267 268 234 232
f 265 241 235 233
f 269 266 233 235
f 234 236 241 265
f 268 270 236 234
f 271 269 235 237
f 270 272 243 236
f 273 274 271 275
f 275 271 237 276
f 277 272 274 273
f 272 277 278 243
f 279 273 275 280
f 280 275 276 247
f 281 277 273 279
f 277 281 250 278
f 282 280 247 249
f 281 283 252 250
f 248 284 253 249
f 285 282 249 253
f 252 254 284 248
f 283 286 254 252
f 287 255 288 289
f 284 288 255 253
f 287 285 253 255
f 289 288 256 290
f 254 256 288 284
f 286 290 256 254
f 291 292 269 293
f 292 274 271 269
f 294 293 269 271
f 295 270 292 291
f 270 272 274 292
f 295 296 272 270
f 274 273 275 271
f 297 294 271 275
f 272 277 273 274
f 296 298 277 272
f 273 279 280 275
f 299 297 275 280
f 277 281 279 273
f 298 300 281 277
f 301 282 302 303
f 279 302 282 280
f 301 299 280 282
f 303 302 283 304
f 281 283 302 279
f 300 304 283 281
