# Generated by tools/pixel/pixel-model.js
o borrowed_amulet
v 0.000000 1.200000 -0.050000
v 0.000000 1.250000 -0.050000
v 0.000000 1.250000 0.000000
v 0.000000 1.200000 0.000000
v -0.050000 1.200000 0.000000
v -0.050000 1.250000 0.000000
v -0.050000 1.250000 -0.050000
v -0.050000 1.200000 -0.050000
v 0.000000 1.250000 0.050000
v 0.000000 1.200000 0.050000
v -0.050000 1.200000 0.050000
v -0.050000 1.250000 0.050000
v -0.100000 1.150000 0.000000
v -0.100000 1.200000 0.000000
v -0.100000 1.200000 -0.050000
v -0.100000 1.150000 -0.050000
v -0.050000 1.150000 0.000000
v -0.050000 1.150000 -0.050000
v -0.100000 1.150000 0.050000
v -0.100000 1.200000 0.050000
v -0.050000 1.150000 0.050000
v 0.000000 1.150000 -0.050000
v 0.000000 1.150000 0.050000
v 0.050000 1.150000 -0.050000
v 0.050000 1.200000 -0.050000
v 0.050000 1.200000 0.000000
v 0.050000 1.150000 0.000000
v 0.000000 1.150000 0.000000
v 0.050000 1.200000 0.050000
v 0.050000 1.150000 0.050000
v -0.150000 1.100000 0.000000
v -0.150000 1.150000 0.000000
v -0.150000 1.150000 -0.050000
v -0.150000 1.100000 -0.050000
v -0.100000 1.100000 0.000000
v -0.100000 1.100000 -0.050000
v -0.150000 1.100000 0.050000
v -0.150000 1.150000 0.050000
v -0.100000 1.100000 0.050000
v -0.050000 1.100000 -0.050000
v -0.050000 1.100000 0.000000
v -0.050000 1.100000 0.050000
v 0.000000 1.100000 0.000000
v 0.000000 1.100000 -0.050000
v 0.050000 1.100000 -0.050000
v 0.000000 1.100000 0.050000
v 0.050000 1.100000 0.050000
v 0.100000 1.150000 0.000000
v 0.100000 1.150000 -0.050000
v 0.100000 1.100000 0.000000
v 0.050000 1.100000 0.000000
v 0.100000 1.100000 -0.050000
v 0.100000 1.150000 0.050000
v 0.100000 1.100000 0.050000
v 0.150000 1.100000 -0.050000
v 0.150000 1.150000 -0.050000
v 0.150000 1.150000 0.000000
v 0.150000 1.100000 0.000000
v 0.150000 1.150000 0.050000
v 0.150000 1.100000 0.050000
v -0.200000 1.050000 0.000000
v -0.200000 1.100000 0.000000
v -0.200000 1.100000 -0.050000
v -0.200000 1.050000 -0.050000
v -0.150000 1.050000 0.000000
v -0.150000 1.050000 -0.050000
v -0.200000 1.050000 0.050000
v -0.200000 1.100000 0.050000
v -0.150000 1.050000 0.050000
v -0.100000 1.050000 -0.050000
v -0.100000 1.050000 0.000000
v -0.100000 1.050000 0.050000
v 0.100000 1.050000 0.000000
v 0.100000 1.050000 -0.050000
v 0.150000 1.050000 -0.050000
v 0.100000 1.050000 0.050000
v 0.150000 1.050000 0.050000
v 0.200000 1.050000 -0.050000
v 0.200000 1.100000 -0.050000
v 0.200000 1.100000 0.000000
v 0.200000 1.050000 0.000000
v 0.150000 1.050000 0.000000
v 0.200000 1.100000 0.050000
v 0.200000 1.050000 0.050000
v -0.250000 1.000000 0.000000
v -0.250000 1.050000 0.000000
v -0.250000 1.050000 -0.050000
v -0.250000 1.000000 -0.050000
v -0.200000 1.000000 0.000000
v -0.200000 1.000000 -0.050000
v -0.250000 1.000000 0.050000
v -0.250000 1.050000 0.050000
v -0.200000 1.000000 0.050000
v -0.150000 1.000000 -0.050000
v -0.150000 1.000000 0.000000
v -0.150000 1.000000 0.050000
v 0.150000 1.000000 0.000000
v 0.150000 1.000000 -0.050000
v 0.200000 1.000000 -0.050000
v 0.150000 1.000000 0.050000
v 0.200000 1.000000 0.050000
v 0.250000 1.000000 -0.050000
v 0.250000 1.050000 -0.050000
v 0.250000 1.050000 0.000000
v 0.250000 1.000000 0.000000
v 0.200000 1.000000 0.000000
v 0.250000 1.050000 0.050000
v 0.250000 1.000000 0.050000
v -0.300000 0.950000 0.000000
v -0.300000 1.000000 0.000000
v -0.300000 1.000000 -0.050000
v -0.300000 0.950000 -0.050000
v -0.250000 0.950000 0.000000
v -0.250000 0.950000 -0.050000
v -0.300000 0.950000 0.050000
v -0.300000 1.000000 0.050000
v -0.250000 0.950000 0.050000
v -0.200000 0.950000 -0.050000
v -0.200000 0.950000 0.000000
v -0.200000 0.950000 0.050000
v 0.200000 0.950000 0.000000
v 0.200000 0.950000 -0.050000
v 0.250000 0.950000 -0.050000
v 0.200000 0.950000 0.050000
v 0.250000 0.950000 0.050000
v 0.300000 0.950000 -0.050000
v 0.300000 1.000000 -0.050000
v 0.300000 1.000000 0.000000
v 0.300000 0.950000 0.000000
v 0.250000 0.950000 0.000000
v 0.300000 1.000000 0.050000
v 0.300000 0.950000 0.050000
v -0.300000 0.900000 0.000000
v -0.300000 0.900000 -0.050000
v -0.250000 0.900000 -0.050000
v -0.300000 0.900000 0.050000
v -0.250000 0.900000 0.050000
v -0.200000 0.900000 -0.050000
v -0.200000 0.900000 0.000000
v -0.200000 0.900000 0.050000
v -0.100000 0.900000 0.000000
v -0.100000 0.950000 0.000000
v -0.100000 0.950000 -0.050000
v -0.100000 0.900000 -0.050000
v -0.050000 0.900000 0.000000
v -0.050000 0.900000 -0.050000
v -0.050000 0.950000 -0.050000
v -0.100000 0.900000 0.050000
v -0.100000 0.950000 0.050000
v -0.050000 0.900000 0.050000
v -0.050000 0.950000 0.050000
v 0.000000 0.900000 0.000000
v 0.000000 0.900000 -0.050000
v 0.000000 0.950000 -0.050000
v 0.000000 0.900000 0.050000
v 0.000000 0.950000 0.050000
v 0.050000 0.900000 0.000000
v 0.050000 0.900000 -0.050000
v 0.050000 0.950000 -0.050000
v 0.050000 0.900000 0.050000
v 0.050000 0.950000 0.050000
v 0.100000 0.900000 -0.050000
v 0.100000 0.950000 -0.050000
v 0.100000 0.950000 0.000000
v 0.100000 0.900000 0.000000
v 0.100000 0.950000 0.050000
v 0.100000 0.900000 0.050000
v 0.200000 0.900000 0.000000
v 0.200000 0.900000 -0.050000
v 0.250000 0.900000 -0.050000
v 0.200000 0.900000 0.050000
v 0.250000 0.900000 0.050000
v 0.300000 0.900000 -0.050000
v 0.300000 0.900000 0.000000
v 0.300000 0.900000 0.050000
v -0.350000 0.850000 0.000000
v -0.350000 0.900000 0.000000
v -0.350000 0.900000 -0.050000
v -0.350000 0.850000 -0.050000
v -0.300000 0.850000 0.000000
v -0.300000 0.850000 -0.050000
v -0.350000 0.850000 0.050000
v -0.350000 0.900000 0.050000
v -0.300000 0.850000 0.050000
v -0.250000 0.850000 -0.050000
v -0.250000 0.850000 0.050000
v -0.200000 0.850000 -0.050000
v -0.200000 0.850000 0.000000
v -0.200000 0.850000 0.050000
v -0.150000 0.850000 0.000000
v -0.150000 0.900000 0.000000
v -0.150000 0.900000 -0.050000
v -0.150000 0.850000 -0.050000
v -0.100000 0.850000 0.000000
v -0.100000 0.850000 -0.050000
v -0.150000 0.850000 0.050000
v -0.150000 0.900000 0.050000
v -0.100000 0.850000 0.050000
v -0.050000 0.850000 -0.050000
v -0.050000 0.850000 0.050000
v 0.000000 0.850000 -0.050000
v 0.000000 0.850000 0.050000
v 0.050000 0.850000 -0.050000
v 0.050000 0.850000 0.050000
v 0.100000 0.850000 -0.050000
v 0.100000 0.850000 0.050000
v 0.150000 0.850000 -0.050000
v 0.150000 0.900000 -0.050000
v 0.150000 0.900000 0.000000
v 0.150000 0.850000 0.000000
v 0.100000 0.850000 0.000000
v 0.150000 0.900000 0.050000
v 0.150000 0.850000 0.050000
v 0.200000 0.850000 0.000000
v 0.200000 0.850000 -0.050000
v 0.250000 0.850000 -0.050000
v 0.200000 0.850000 0.050000
v 0.250000 0.850000 0.050000
v 0.300000 0.850000 -0.050000
v 0.300000 0.850000 0.050000
v 0.350000 0.850000 -0.050000
v 0.350000 0.900000 -0.050000
v 0.350000 0.900000 0.000000
v 0.350000 0.850000 0.000000
v 0.300000 0.850000 0.000000
v 0.350000 0.900000 0.050000
v 0.350000 0.850000 0.050000
v -0.350000 0.800000 0.000000
v -0.350000 0.800000 -0.050000
v -0.300000 0.800000 -0.050000
v -0.350000 0.800000 0.050000
v -0.300000 0.800000 0.050000
v -0.250000 0.800000 -0.050000
v -0.250000 0.800000 0.050000
v -0.200000 0.800000 -0.050000
v -0.200000 0.800000 0.000000
v -0.200000 0.800000 0.050000
v -0.150000 0.800000 0.000000
v -0.150000 0.800000 -0.050000
v -0.100000 0.800000 -0.050000
v -0.150000 0.800000 0.050000
v -0.100000 0.800000 0.050000
v -0.050000 0.800000 -0.050000
v -0.050000 0.850000 0.000000
v -0.050000 0.800000 0.000000
v -0.050000 0.800000 0.050000
v 0.050000 0.800000 0.000000
v 0.050000 0.850000 0.000000
v 0.050000 0.800000 -0.050000
v 0.100000 0.800000 -0.050000
v 0.050000 0.800000 0.050000
v 0.100000 0.800000 0.050000
v 0.150000 0.800000 -0.050000
v 0.150000 0.800000 0.000000
v 0.150000 0.800000 0.050000
v 0.200000 0.800000 0.000000
v 0.200000 0.800000 -0.050000
v 0.250000 0.800000 -0.050000
v 0.200000 0.800000 0.050000
v 0.250000 0.800000 0.050000
v 0.300000 0.800000 -0.050000
v 0.300000 0.800000 0.050000
v 0.350000 0.800000 -0.050000
v 0.350000 0.800000 0.000000
v 0.350000 0.800000 0.050000
v -0.350000 0.750000 0.000000
v -0.350000 0.750000 -0.050000
v -0.300000 0.800000 0.000000
v -0.300000 0.750000 -0.050000
v -0.350000 0.750000 0.050000
v -0.300000 0.750000 0.050000
v -0.250000 0.750000 -0.050000
v -0.250000 0.750000 0.050000
v -0.200000 0.750000 -0.050000
v -0.200000 0.750000 0.000000
v -0.200000 0.750000 0.050000
v -0.100000 0.750000 -0.050000
v -0.100000 0.800000 0.000000
v -0.100000 0.750000 0.000000
v -0.150000 0.750000 0.000000
v -0.150000 0.750000 -0.050000
v -0.100000 0.750000 0.050000
v -0.150000 0.750000 0.050000
v 0.150000 0.750000 -0.050000
v 0.150000 0.750000 0.000000
v 0.100000 0.750000 0.000000
v 0.100000 0.800000 0.000000
v 0.100000 0.750000 -0.050000
v 0.150000 0.750000 0.050000
v 0.100000 0.750000 0.050000
v 0.200000 0.750000 0.000000
v 0.200000 0.750000 -0.050000
v 0.250000 0.750000 -0.050000
v 0.200000 0.750000 0.050000
v 0.250000 0.750000 0.050000
v 0.300000 0.750000 -0.050000
v 0.300000 0.750000 0.050000
v 0.350000 0.750000 -0.050000
v 0.350000 0.750000 0.000000
v 0.300000 0.800000 0.000000
v 0.350000 0.750000 0.050000
v -0.300000 0.700000 0.000000
v -0.300000 0.750000 0.000000
v -0.300000 0.700000 -0.050000
v -0.250000 0.700000 -0.050000
v -0.300000 0.700000 0.050000
v -0.250000 0.700000 0.050000
v -0.200000 0.700000 -0.050000
v -0.200000 0.700000 0.000000
v -0.200000 0.700000 0.050000
v -0.150000 0.700000 0.000000
v -0.150000 0.700000 -0.050000
v -0.100000 0.700000 -0.050000
v -0.150000 0.700000 0.050000
v -0.100000 0.700000 0.050000
v -0.050000 0.700000 -0.050000
v -0.050000 0.750000 -0.050000
v -0.050000 0.750000 0.000000
v -0.050000 0.700000 0.000000
v -0.100000 0.700000 0.000000
v -0.050000 0.750000 0.050000
v -0.050000 0.700000 0.050000
v 0.050000 0.700000 0.000000
v 0.050000 0.750000 0.000000
v 0.050000 0.750000 -0.050000
v 0.050000 0.700000 -0.050000
v 0.100000 0.700000 0.000000
v 0.100000 0.700000 -0.050000
v 0.050000 0.700000 0.050000
v 0.050000 0.750000 0.050000
v 0.100000 0.700000 0.050000
v 0.150000 0.700000 -0.050000
v 0.150000 0.700000 0.000000
v 0.150000 0.700000 0.050000
v 0.200000 0.700000 0.000000
v 0.200000 0.700000 -0.050000
v 0.250000 0.700000 -0.050000
v 0.200000 0.700000 0.050000
v 0.250000 0.700000 0.050000
v 0.300000 0.700000 -0.050000
v 0.300000 0.750000 0.000000
v 0.300000 0.700000 0.000000
v 0.300000 0.700000 0.050000
v -0.300000 0.650000 0.000000
v -0.300000 0.650000 -0.050000
v -0.250000 0.700000 0.000000
v -0.250000 0.650000 -0.050000
v -0.300000 0.650000 0.050000
v -0.250000 0.650000 0.050000
v -0.200000 0.650000 -0.050000
v -0.200000 0.650000 0.050000
v -0.150000 0.650000 0.000000
v -0.200000 0.650000 0.000000
v -0.150000 0.650000 -0.050000
v -0.150000 0.650000 0.050000
v -0.100000 0.650000 -0.050000
v -0.100000 0.650000 0.050000
v -0.050000 0.650000 -0.050000
v -0.050000 0.650000 0.050000
v 0.000000 0.650000 0.000000
v -0.050000 0.650000 0.000000
v 0.000000 0.650000 -0.050000
v 0.000000 0.700000 -0.050000
v 0.000000 0.650000 0.050000
v 0.000000 0.700000 0.050000
v 0.050000 0.650000 0.000000
v 0.050000 0.650000 -0.050000
v 0.050000 0.650000 0.050000
v 0.100000 0.650000 -0.050000
v 0.100000 0.650000 0.050000
v 0.150000 0.650000 -0.050000
v 0.150000 0.650000 0.050000
v 0.200000 0.650000 0.000000
v 0.150000 0.650000 0.000000
v 0.200000 0.650000 -0.050000
v 0.200000 0.650000 0.050000
v 0.250000 0.700000 0.000000
v 0.250000 0.650000 -0.050000
v 0.250000 0.650000 0.050000
v 0.300000 0.650000 -0.050000
v 0.300000 0.650000 0.000000
v 0.300000 0.650000 0.050000
v -0.200000 0.600000 0.000000
v -0.200000 0.600000 -0.050000
v -0.150000 0.600000 -0.050000
v -0.200000 0.600000 0.050000
v -0.150000 0.600000 0.050000
v -0.100000 0.650000 0.000000
v -0.100000 0.600000 -0.050000
v -0.100000 0.600000 0.050000
v -0.050000 0.600000 -0.050000
v -0.050000 0.600000 0.050000
v 0.000000 0.600000 -0.050000
v 0.000000 0.600000 0.050000
v 0.050000 0.600000 -0.050000
v 0.050000 0.600000 0.050000
v 0.100000 0.600000 -0.050000
v 0.100000 0.600000 0.050000
v 0.100000 0.650000 0.000000
v 0.150000 0.600000 -0.050000
v 0.150000 0.600000 0.050000
v 0.200000 0.600000 -0.050000
v 0.200000 0.600000 0.000000
v 0.200000 0.600000 0.050000
v -0.100000 0.550000 0.000000
v -0.100000 0.600000 0.000000
v -0.100000 0.550000 -0.050000
v -0.050000 0.600000 0.000000
v -0.050000 0.550000 -0.050000
v -0.100000 0.550000 0.050000
v -0.050000 0.550000 0.050000
v 0.000000 0.600000 0.000000
v 0.000000 0.550000 -0.050000
v 0.000000 0.550000 0.050000
v 0.050000 0.600000 0.000000
v 0.050000 0.550000 -0.050000
v 0.050000 0.550000 0.050000
v 0.100000 0.550000 -0.050000
v 0.100000 0.600000 0.000000
v 0.100000 0.550000 0.000000
v 0.100000 0.550000 0.050000
f 1 2 3 4
f 5 6 7 8
f 4 5 8 1
f 1 8 7 2
f 4 3 9 10
f 11 12 6 5
f 10 11 5 4
f 11 10 9 12
f 13 14 15 16
f 17 13 16 18
f 18 16 15 8
f 19 20 14 13
f 21 19 13 17
f 19 21 11 20
f 5 4 1 8
f 22 18 8 1
f 11 10 4 5
f 21 23 10 11
f 24 25 26 27
f 27 28 22 24
f 24 22 1 25
f 27 26 29 30
f 30 23 28 27
f 23 30 29 10
f 31 32 33 34
f 35 31 34 36
f 36 34 33 16
f 37 38 32 31
f 39 37 31 35
f 37 39 19 38
f 40 18 17 41
f 13 17 18 16
f 40 36 16 18
f 41 17 21 42
f 19 21 17 13
f 39 42 21 19
f 43 28 22 44
f 28 27 24 22
f 45 44 22 24
f 46 23 28 43
f 23 30 27 28
f 46 47 30 23
f 27 48 49 24
f 50 51 45 52
f 52 45 24 49
f 30 53 48 27
f 54 47 51 50
f 47 54 53 30
f 55 56 57 58
f 58 50 52 55
f 55 52 49 56
f 58 57 59 60
f 60 54 50 58
f 54 60 59 53
f 61 62 63 64
f 65 61 64 66
f 66 64 63 34
f 67 68 62 61
f 69 67 61 65
f 67 69 37 68
f 70 36 35 71
f 31 35 36 34
f 70 66 34 36
f 71 35 39 72
f 37 39 35 31
f 69 72 39 37
f 73 50 52 74
f 50 58 55 52
f 75 74 52 55
f 76 54 50 73
f 54 60 58 50
f 76 77 60 54
f 78 79 80 81
f 81 82 75 78
f 78 75 55 79
f 81 80 83 84
f 84 77 82 81
f 77 84 83 60
f 85 86 87 88
f 89 85 88 90
f 90 88 87 64
f 91 92 86 85
f 93 91 85 89
f 91 93 67 92
f 94 66 65 95
f 61 65 66 64
f 94 90 64 66
f 95 65 69 96
f 67 69 65 61
f 93 96 69 67
f 97 82 75 98
f 82 81 78 75
f 99 98 75 78
f 100 77 82 97
f 77 84 81 82
f 100 101 84 77
f 102 103 104 105
f 105 106 99 102
f 102 99 78 103
f 105 104 107 108
f 108 101 106 105
f 101 108 107 84
f 109 110 111 112
f 113 109 112 114
f 114 112 111 88
f 115 116 110 109
f 117 115 109 113
f 115 117 91 116
f 118 90 89 119
f 118 114 88 90
f 119 89 93 120
f 117 120 93 91
f 121 106 99 122
f 123 122 99 102
f 124 101 106 121
f 124 125 108 101
f 126 127 128 129
f 129 130 123 126
f 126 123 102 127
f 129 128 131 132
f 132 125 130 129
f 125 132 131 108
f 133 109 112 134
f 135 134 112 114
f 136 115 109 133
f 136 137 117 115
f 138 118 119 139
f 138 135 114 118
f 139 119 120 140
f 137 140 120 117
f 141 142 143 144
f 145 141 144 146
f 146 144 143 147
f 148 149 142 141
f 150 148 141 145
f 148 150 151 149
f 152 145 146 153
f 153 146 147 154
f 155 150 145 152
f 150 155 156 151
f 157 152 153 158
f 158 153 154 159
f 160 155 152 157
f 155 160 161 156
f 162 163 164 165
f 165 157 158 162
f 162 158 159 163
f 165 164 166 167
f 167 160 157 165
f 160 167 166 161
f 168 121 122 169
f 170 169 122 123
f 171 124 121 168
f 171 172 125 124
f 173 126 129 174
f 173 170 123 126
f 174 129 132 175
f 172 175 132 125
f 176 177 178 179
f 180 176 179 181
f 181 179 178 134
f 182 183 177 176
f 184 182 176 180
f 182 184 136 183
f 185 181 134 135
f 184 186 137 136
f 187 138 139 188
f 187 185 135 138
f 188 139 140 189
f 186 189 140 137
f 190 191 192 193
f 194 190 193 195
f 195 193 192 144
f 196 197 191 190
f 198 196 190 194
f 196 198 148 197
f 199 195 144 146
f 198 200 150 148
f 145 152 153 146
f 201 199 146 153
f 150 155 152 145
f 200 202 155 150
f 152 157 158 153
f 203 201 153 158
f 155 160 157 152
f 202 204 160 155
f 205 203 158 162
f 204 206 167 160
f 207 208 209 210
f 210 211 205 207
f 207 205 162 208
f 210 209 212 213
f 213 206 211 210
f 206 213 212 167
f 214 168 169 215
f 216 215 169 170
f 217 171 168 214
f 217 218 172 171
f 219 216 170 173
f 218 220 175 172
f 221 222 223 224
f 224 225 219 221
f 221 219 173 222
f 224 223 226 227
f 227 220 225 224
f 220 227 226 175
f 228 176 179 229
f 230 229 179 181
f 231 182 176 228
f 231 232 184 182
f 233 230 181 185
f 232 234 186 184
f 235 187 188 236
f 235 233 185 187
f 236 188 189 237
f 234 237 189 186
f 238 190 193 239
f 240 239 193 195
f 241 196 190 238
f 241 242 198 196
f 243 199 244 245
f 194 244 199 195
f 243 240 195 199
f 245 244 200 246
f 198 200 244 194
f 242 246 200 198
f 247 248 203 249
f 248 211 205 203
f 250 249 203 205
f 251 204 248 247
f 204 206 211 248
f 251 252 206 204
f 253 207 210 254
f 253 250 205 207
f 254 210 213 255
f 252 255 213 206
f 256 214 215 257
f 258 257 215 216
f 259 217 214 256
f 259 260 218 217
f 261 258 216 219
f 260 262 220 218
f 263 221 224 264
f 263 261 219 221
f 264 224 227 265
f 262 265 227 220
f 266 228 229 267
f 228 268 230 229
f 269 267 229 230
f 270 231 228 266
f 231 232 268 228
f 270 271 232 231
f 272 269 230 233
f 271 273 234 232
f 274 235 236 275
f 274 272 233 235
f 275 236 237 276
f 273 276 237 234
f 277 240 278 279
f 280 238 239 281
f 277 281 239 240
f 279 278 242 282
f 283 241 238 280
f 283 282 242 241
f 284 253 254 285
f 286 287 250 288
f 284 288 250 253
f 285 254 255 289
f 290 252 287 286
f 290 289 255 252
f 291 256 257 292
f 293 292 257 258
f 294 259 256 291
f 294 295 260 259
f 296 293 258 261
f 295 297 262 260
f 298 263 264 299
f 300 264 263 261
f 298 296 261 263
f 299 264 265 301
f 262 265 264 300
f 297 301 265 262
f 302 303 269 304
f 305 304 269 272
f 306 271 303 302
f 306 307 273 271
f 308 274 275 309
f 308 305 272 274
f 309 275 276 310
f 307 310 276 273
f 311 280 281 312
f 313 312 281 277
f 314 283 280 311
f 314 315 282 283
f 316 317 318 319
f 319 320 313 316
f 316 313 277 317
f 319 318 321 322
f 322 315 320 319
f 315 322 321 282
f 323 324 325 326
f 327 323 326 328
f 328 326 325 288
f 329 330 324 323
f 331 329 323 327
f 329 331 290 330
f 332 284 285 333
f 332 328 288 284
f 333 285 289 334
f 331 334 289 290
f 335 291 292 336
f 337 336 292 293
f 338 294 291 335
f 338 339 295 294
f 340 296 341 342
f 340 337 293 296
f 342 341 297 343
f 339 343 297 295
f 344 302 304 345
f 302 346 305 304
f 347 345 304 305
f 348 306 302 344
f 306 307 346 302
f 348 349 307 306
f 346 309 308 305
f 350 347 305 308
f 307 310 309 346
f 349 351 310 307
f 352 353 350 354
f 354 350 308 312
f 355 351 353 352
f 351 355 314 310
f 356 354 312 313
f 355 357 315 314
f 358 356 313 316
f 357 359 322 315
f 360 361 358 362
f 362 358 316 363
f 364 359 361 360
f 359 364 365 322
f 366 360 362 367
f 367 362 363 326
f 368 364 360 366
f 364 368 329 365
f 369 367 326 328
f 368 370 331 329
f 371 369 328 332
f 370 372 334 331
f 373 374 371 375
f 375 371 332 336
f 376 372 374 373
f 372 376 338 334
f 335 377 337 336
f 378 375 336 337
f 338 339 377 335
f 376 379 339 338
f 380 340 342 381
f 377 342 340 337
f 380 378 337 340
f 381 342 343 382
f 339 343 342 377
f 379 382 343 339
f 383 353 350 384
f 353 352 354 350
f 385 384 350 354
f 386 351 353 383
f 351 355 352 353
f 386 387 355 351
f 352 388 356 354
f 389 385 354 356
f 355 357 388 352
f 387 390 357 355
f 391 389 356 358
f 390 392 359 357
f 393 391 358 362
f 392 394 364 359
f 395 393 362 367
f 394 396 368 364
f 397 395 367 369
f 396 398 370 368
f 399 374 371 369
f 400 397 369 371
f 370 372 374 399
f 398 401 372 370
f 402 375 373 403
f 374 373 375 371
f 402 400 371 375
f 403 373 376 404
f 372 376 373 374
f 401 404 376 372
f 405 406 389 407
f 406 408 391 389
f 409 407 389 391
f 410 390 406 405
f 390 392 408 406
f 410 411 392 390
f 408 412 393 391
f 413 409 391 393
f 392 394 412 408
f 411 414 394 392
f 412 415 395 393
f 416 413 393 395
f 394 396 415 412
f 414 417 396 394
f 418 397 419 420
f 415 419 397 395
f 418 416 395 397
f 420 419 398 421
f 396 398 419 415
f 417 421 398 396
